<svg xmlns="http://www.w3.org/2000/svg" width="23.969" height="20.697" viewBox="0 0 23.969 20.697">
  <g id="Grupo_819" data-name="Grupo 819" transform="translate(-19.769 -1700.503)">
    <g id="Grupo_719" data-name="Grupo 719" transform="translate(-172 -334)">
      <g id="Grupo_708" data-name="Grupo 708" transform="translate(191.048 2027.527)">
        <path id="Trazado_47" data-name="Trazado 47" d="M24.344,12.7l-4.1-3.9a.36.36,0,0,0-.139-.082l-4.763-1.5a.359.359,0,0,0-.322.054,4.405,4.405,0,0,1-2.317.781A2.711,2.711,0,0,1,10.8,7.278a.361.361,0,0,0-.349-.083L5.517,8.669a.364.364,0,0,0-.142.082L1.066,12.774a.359.359,0,0,0-.023.5L3.651,16.21a.358.358,0,0,0,.488.045l.891-.69V27.114a.359.359,0,0,0,.359.359H19.505a.359.359,0,0,0,.359-.359V15.5l1.107.829a.359.359,0,0,0,.476-.041l2.91-3.08A.359.359,0,0,0,24.344,12.7ZM12.707,8.77a4.971,4.971,0,0,0,2.435-.722,2.9,2.9,0,0,1-.739,2.012,2.016,2.016,0,0,1-1.517.512,2.335,2.335,0,0,1-2.2-2.458A3.356,3.356,0,0,0,12.707,8.77Zm8.439,6.79L19.72,14.493a.359.359,0,0,0-.574.287V26.756H5.748V14.834a.359.359,0,0,0-.579-.284l-1.2.932L1.812,13.06,5.8,9.333,9.969,8.089a3.025,3.025,0,0,0,2.9,3.2l.108,0a2.659,2.659,0,0,0,1.929-.716,3.632,3.632,0,0,0,.951-2.444l3.959,1.248,3.776,3.594Z" transform="translate(0)" stroke="#000" stroke-width="0.4"/>
      </g>
      <g id="Elipse_52" data-name="Elipse 52" transform="translate(199 2043)" fill="#303030" stroke="#303030" stroke-width="1">
        <circle cx="4.5" cy="4.5" r="4.5" stroke="none"/>
        <circle cx="4.5" cy="4.5" r="4" fill="none"/>
      </g>
      <path id="Trazado_6438" data-name="Trazado 6438" d="M47.475-185.139a.215.215,0,0,0,.153-.063l2.151-2.151a.216.216,0,0,0,0-.305.216.216,0,0,0-.305,0l-2,2-.923-.923a.216.216,0,0,0-.305,0,.216.216,0,0,0,0,.305l1.076,1.075A.216.216,0,0,0,47.475-185.139Z" transform="translate(155.513 2233.942)" fill="#fff" stroke="#fff" stroke-width="0.5"/>
    </g>
  </g>
</svg>
