<svg xmlns="http://www.w3.org/2000/svg" width="14.677" height="19.569" viewBox="0 0 14.677 19.569">
  <path id="Icon_awesome-file-alt" data-name="Icon awesome-file-alt" d="M8.562,5.2V0H.917A.915.915,0,0,0,0,.917V18.652a.915.915,0,0,0,.917.917H13.76a.915.915,0,0,0,.917-.917V6.115h-5.2A.92.92,0,0,1,8.562,5.2Zm2.446,9.02a.46.46,0,0,1-.459.459H4.128a.46.46,0,0,1-.459-.459v-.306a.46.46,0,0,1,.459-.459h6.421a.46.46,0,0,1,.459.459Zm0-2.446a.46.46,0,0,1-.459.459H4.128a.46.46,0,0,1-.459-.459v-.306a.46.46,0,0,1,.459-.459h6.421a.46.46,0,0,1,.459.459Zm0-2.752v.306a.46.46,0,0,1-.459.459H4.128a.46.46,0,0,1-.459-.459V9.02a.46.46,0,0,1,.459-.459h6.421A.46.46,0,0,1,11.008,9.02Zm3.669-4.361v.233H9.785V0h.233a.917.917,0,0,1,.65.268l3.742,3.746A.914.914,0,0,1,14.677,4.659Z" fill="#fff"/>
</svg>
