<svg xmlns="http://www.w3.org/2000/svg" width="19.353" height="19.379" viewBox="0 0 19.353 19.379">
  <path d="M18.014,451.6a4.391,4.391,0,0,0-2.559-1.235,2.9,2.9,0,0,0-2.015,1.18l-.206.208a.439.439,0,0,1-.332.123c-.506,0-1.594-.485-3.9-2.793a17.408,17.408,0,0,1-2.229-2.6c-.293-.45-.734-1.255-.4-1.591l.182-.181c1.086-1.074,2.024-2-.07-4.6a2.936,2.936,0,0,0-2.186-1.38,3.6,3.6,0,0,0-2.378,1.485c-.119.125-.234.248-.348.361a2.419,2.419,0,0,0-.567,1.751c0,1.994,1.379,5.679,5.24,9.505,3.9,3.9,7.576,5.277,9.545,5.277a2.369,2.369,0,0,0,1.711-.56c.108-.108.224-.218.342-.331.693-.66,1.556-1.482,1.513-2.517A2.992,2.992,0,0,0,18.014,451.6Zm-.555,4.218c-.122.116-.241.23-.352.34a1.847,1.847,0,0,1-1.315.4c-1.862,0-5.375-1.339-9.151-5.114-3.741-3.706-5.072-7.224-5.076-9.11a1.9,1.9,0,0,1,.4-1.354c.117-.117.236-.243.359-.372.581-.614,1.24-1.31,1.972-1.31.553,0,1.125.382,1.75,1.17,1.779,2.205,1.152,2.825.114,3.851l-.184.183c-.469.469-.359,1.24.326,2.292a17.92,17.92,0,0,0,2.3,2.688c1.989,1.99,3.395,2.957,4.3,2.957h0a.99.99,0,0,0,.727-.286l.209-.211c.556-.566,1-1.013,1.617-1.013a3.985,3.985,0,0,1,2.207,1.111,2.53,2.53,0,0,1,1.136,1.694C18.831,454.515,18.1,455.209,17.459,455.822Z"/>
</svg>
