<svg xmlns="http://www.w3.org/2000/svg" width="32.288" height="21.624" viewBox="0 0 32.288 21.624">
  <g id="Grupo_704" data-name="Grupo 704" transform="translate(-0.3 -16.8)">
    <path id="Trazado_35" data-name="Trazado 35" d="M44.8,28.544,42.1,23.78a.577.577,0,0,0-.437-.306H36.805V18.141c0-.426-.178-1.141-1.369-1.141H20.718C19.658,17,19,17.437,19,18.141v1.126a.486.486,0,1,0,.971,0l0-1.126a1.173,1.173,0,0,1,.749-.169H35.437c.317,0,.381.06.382.06a.245.245,0,0,1,.016.109V33.187a.482.482,0,0,0,.027.153,3.2,3.2,0,0,0-.352.8l-.021.015H29.154a3.207,3.207,0,0,0-6.188,0H20.716a1.031,1.031,0,0,1-.745-.662V29.3a.486.486,0,1,0-.971,0V33.5a1.9,1.9,0,0,0,1.716,1.633h2.138a3.208,3.208,0,0,0,6.411,0h6.127a3.208,3.208,0,0,0,6.412-.014l.058,0c2.418,0,2.963-1.582,2.985-1.654.014-.046.052-.094.052-.142V28.785A.527.527,0,0,0,44.8,28.544Zm-18.745,8.7a2.243,2.243,0,0,1-2.241-2.24,2.241,2.241,0,1,1,4.481,0A2.243,2.243,0,0,1,26.06,37.248Zm12.539,0a2.241,2.241,0,1,1,2.24-2.241A2.243,2.243,0,0,1,38.6,37.253Zm5.329-4.025a2.467,2.467,0,0,1-2.21.913,3.236,3.236,0,0,0-4.912-1.793v-7.9h4.58l2.542,4.468Z" transform="translate(-12.511 0)" fill="#303030" stroke="#303030" stroke-width="0.4"/>
    <path id="Trazado_36" data-name="Trazado 36" d="M9.241,29.486A.485.485,0,0,0,8.755,29H.986a.486.486,0,1,0,0,.971h7.77A.485.485,0,0,0,9.241,29.486Z" transform="translate(0 -8.115)" fill="#303030" stroke="#303030" stroke-width="0.4"/>
    <path id="Trazado_37" data-name="Trazado 37" d="M11.946,38.486A.485.485,0,0,0,11.46,38H4.986a.486.486,0,0,0,0,.971H11.46A.485.485,0,0,0,11.946,38.486Z" transform="translate(-2.705 -14.202)" fill="#303030" stroke="#303030" stroke-width="0.4"/>
    <path id="Trazado_38" data-name="Trazado 38" d="M15.327,47.486A.485.485,0,0,0,14.842,47H9.986a.486.486,0,1,0,0,.971h4.856A.485.485,0,0,0,15.327,47.486Z" transform="translate(-6.086 -20.288)" fill="#303030" stroke="#303030" stroke-width="0.4"/>
  </g>
</svg>
